<svg width="103" height="29" viewBox="0 0 103 29" fill="none" xmlns="http://www.w3.org/2000/svg">
<path d="M13.9548 9.35631C16.5245 9.35631 18.6074 11.4507 18.6074 14.0345C18.6074 16.6183 16.5245 18.7126 13.9548 18.7126C11.3851 18.7126 9.30224 16.6183 9.30224 14.0345C9.30519 11.4507 11.3881 9.35631 13.9548 9.35631ZM13.9548 9.35631C16.5245 9.35631 18.6074 7.26197 18.6074 4.67816C18.6074 2.09434 16.5245 0 13.9548 0C11.3851 0 9.30224 2.09434 9.30224 4.67816C9.30519 7.26197 11.3881 9.35631 13.9548 9.35631ZM27.9126 4.67816C27.9126 2.09434 25.8297 0 23.26 0C20.6903 0 18.6074 2.09434 18.6074 4.67816C18.6074 7.26197 20.6903 9.35631 23.26 9.35631C25.8297 9.35631 27.9126 7.26197 27.9126 4.67816ZM4.6526 9.35631C2.0829 9.35631 0 11.4507 0 14.0345C0 16.6183 2.0829 18.7126 4.6526 18.7126C7.22229 18.7126 9.30519 16.6183 9.30519 14.0345C9.30519 11.4507 7.22229 9.35631 4.6526 9.35631ZM13.9548 28.066C16.5245 28.066 18.6074 25.9716 18.6074 23.3878C18.6074 20.804 16.5245 18.7097 13.9548 18.7097C11.3851 18.7097 9.30224 20.804 9.30224 23.3878C9.30519 25.9716 11.3881 28.066 13.9548 28.066ZM27.9126 23.3878C27.9126 20.804 25.8297 18.7097 23.26 18.7097C20.6903 18.7097 18.6074 20.804 18.6074 23.3878C18.6074 25.9716 20.6903 28.066 23.26 28.066C25.8297 28.066 27.9126 25.9716 27.9126 23.3878Z" fill="#FF6600"/>
<path d="M62.3424 10.0693C61.8379 10.0693 61.3658 10.1613 60.9203 10.3482C60.4778 10.5351 60.0766 10.808 59.7137 11.1669V10.2354H58.2887L58.2857 20.4728H59.696L59.6989 16.913C60.0795 17.2868 60.4955 17.5656 60.9469 17.7525C61.3983 17.9394 61.8939 18.0314 62.425 18.0314C63.0239 18.0314 63.5549 17.9365 64.024 17.7436C64.4902 17.5508 64.9209 17.2571 65.3163 16.8566C65.6791 16.4829 65.9594 16.0587 66.1541 15.5781C66.3489 15.0975 66.4462 14.5962 66.4462 14.0652C66.4462 12.9171 66.0568 11.9649 65.2779 11.2055C64.5049 10.449 63.5225 10.0693 62.3424 10.0693ZM64.1922 15.937C63.6671 16.4473 63.0357 16.6994 62.2981 16.6994C61.5783 16.6994 60.9557 16.4354 60.4365 15.9044C59.9172 15.3764 59.6576 14.7356 59.6576 13.9851C59.6576 13.285 59.9232 12.6739 60.4513 12.1518C60.9794 11.6297 61.593 11.3686 62.2834 11.3686C63.0386 11.3686 63.6759 11.6267 64.1981 12.1488C64.7203 12.668 64.9799 13.3147 64.9799 14.083C64.9829 14.8098 64.7203 15.4268 64.1922 15.937ZM43.6022 11.1669C43.2068 10.7813 42.7673 10.4876 42.2805 10.2918C41.7937 10.096 41.2656 9.99515 40.6962 9.99515C40.1651 9.99515 39.6518 10.1049 39.1591 10.3274C38.6664 10.5469 38.2209 10.8643 37.8285 11.2737C37.4626 11.6475 37.1853 12.0658 36.9994 12.5345C36.8136 13.0032 36.7192 13.5045 36.7192 14.0444C36.7192 14.5606 36.8224 15.0649 37.029 15.5603C37.2355 16.0557 37.5216 16.4888 37.8875 16.8626C38.274 17.2542 38.7077 17.5508 39.1915 17.7496C39.6754 17.9483 40.2035 18.0492 40.7788 18.0492C41.3393 18.0492 41.8674 17.9394 42.3631 17.7199C42.8587 17.5033 43.3072 17.18 43.7054 16.7558C44.0506 16.3879 44.3221 15.9578 44.5138 15.4654C44.7056 14.9729 44.8029 14.4657 44.8029 13.9465C44.8029 13.4363 44.6997 12.9409 44.4932 12.4633C44.2808 11.9797 43.9857 11.5496 43.6022 11.1669ZM42.602 15.9222C42.1093 16.4295 41.5016 16.6846 40.7758 16.6846C40.0353 16.6846 39.4187 16.4324 38.923 15.9252C38.4274 15.4179 38.1796 14.786 38.1796 14.0266C38.1796 13.2613 38.4274 12.6264 38.923 12.1162C39.4187 11.606 40.0323 11.3538 40.764 11.3538C41.4986 11.3538 42.1123 11.606 42.605 12.1073C43.0947 12.6086 43.3426 13.2435 43.3426 14.0148C43.3367 14.7771 43.0918 15.4149 42.602 15.9222ZM31.8778 11.3686C32.4177 11.3686 32.8838 11.4843 33.2732 11.7128C33.6627 11.9441 33.9784 12.2912 34.2262 12.754H35.7721C35.4741 11.8848 34.9933 11.2084 34.3353 10.7279C33.6745 10.2473 32.8956 10.007 32.0017 10.007C31.4293 10.007 30.8894 10.1168 30.3849 10.3304C29.8804 10.5469 29.429 10.8643 29.0248 11.2826C28.659 11.6653 28.3817 12.0865 28.1958 12.5493C28.007 13.0121 27.9155 13.5075 27.9155 14.0385C27.9155 14.5546 28.0188 15.059 28.2253 15.5544C28.4318 16.0498 28.718 16.4829 29.0838 16.8566C29.4674 17.2482 29.8981 17.5419 30.3731 17.7377C30.8481 17.9335 31.3762 18.0314 31.9604 18.0314C32.8868 18.0314 33.6715 17.7941 34.3176 17.3224C34.9638 16.8507 35.4506 16.1566 35.7751 15.2399H34.2291C34.0049 15.6997 33.6951 16.0557 33.2968 16.3049C32.8986 16.557 32.4531 16.6816 31.9574 16.6816C31.2228 16.6816 30.6062 16.4295 30.1135 15.9222C29.6208 15.4149 29.373 14.7831 29.373 14.0237C29.373 13.2731 29.6149 12.6413 30.1017 12.131C30.5855 11.6238 31.1785 11.3686 31.8778 11.3686ZM53.8928 10.1108C53.3175 10.1108 52.8307 10.2176 52.4294 10.4342C52.0311 10.6507 51.7096 10.98 51.4676 11.422C51.2257 10.9711 50.9159 10.6389 50.5383 10.4253C50.1607 10.2147 49.6857 10.1079 49.1192 10.1079C48.6973 10.1079 48.3226 10.1909 47.9952 10.36C47.6647 10.5262 47.3726 10.7813 47.113 11.1224V10.2325H45.8591V17.8297H47.1956V13.9406C47.1956 13.0566 47.3402 12.4039 47.6293 11.9827C47.9184 11.5615 48.3639 11.3508 48.9687 11.3508C49.5529 11.3508 49.9836 11.5615 50.2521 11.9797C50.5206 12.398 50.6563 13.0714 50.6563 13.997V17.8297H52.0223V13.8575C52.0223 12.9527 52.1551 12.306 52.4235 11.9234C52.692 11.5407 53.1287 11.3508 53.7394 11.3508C54.2645 11.3508 54.6716 11.5318 54.9637 11.8907C55.2558 12.2497 55.4033 12.754 55.4033 13.4037V17.8297H56.8195V13.1901C56.8195 12.2556 56.5539 11.5081 56.0199 10.9504C55.4859 10.3927 54.7779 10.1108 53.8928 10.1108ZM96.1231 11.1521C95.7514 10.7783 95.3413 10.5024 94.8929 10.3185C94.4415 10.1346 93.9488 10.0426 93.4118 10.0426C92.8129 10.0426 92.2819 10.1375 91.8128 10.3304C91.3437 10.5202 90.9129 10.8169 90.5205 11.2174C90.1606 11.5822 89.8833 12.0035 89.6856 12.4811C89.4909 12.9587 89.3965 13.4659 89.3965 13.9999C89.3965 15.1479 89.7859 16.1002 90.5648 16.8626C91.3437 17.625 92.3202 18.0047 93.4974 18.0047C93.9989 18.0047 94.4739 17.9127 94.9165 17.7258C95.359 17.5389 95.7632 17.2631 96.1231 16.9011V17.8326H97.5481V10.2354H96.1231V11.1521ZM95.4003 15.9163C94.8722 16.4384 94.2585 16.6994 93.5682 16.6994C92.81 16.6994 92.1668 16.4413 91.6446 15.9192C91.1194 15.3971 90.8569 14.7534 90.8569 13.9851C90.8569 13.2524 91.1194 12.6353 91.6446 12.1281C92.1697 11.6208 92.8011 11.3686 93.5416 11.3686C94.2615 11.3686 94.887 11.6356 95.4091 12.1666C95.9343 12.6976 96.1939 13.3384 96.1939 14.083C96.1939 14.7831 95.9284 15.3942 95.4003 15.9163ZM101.292 10.363C100.991 10.5262 100.723 10.7753 100.49 11.1135V10.2354H99.1649V17.8326H100.575V13.6054C100.575 12.9053 100.711 12.398 100.985 12.0836C101.257 11.7691 101.708 11.5882 102.342 11.5407V10.1108C101.944 10.1168 101.593 10.1998 101.292 10.363ZM86.9212 13.377C86.7973 13.3295 86.6291 13.2672 86.4167 13.1901C85.6555 12.9171 85.2779 12.5701 85.2779 12.1488C85.2779 11.8996 85.3634 11.692 85.5316 11.5229C85.6998 11.3538 85.9092 11.2707 86.163 11.2707C86.4432 11.2707 86.6675 11.3479 86.8327 11.5051C86.9979 11.6623 87.0953 11.8818 87.1189 12.1607H88.4701C88.4317 11.4754 88.2164 10.9415 87.821 10.5617C87.4286 10.182 86.8946 9.99219 86.2279 9.99219C85.5877 9.99219 85.0448 10.2087 84.6023 10.6419C84.1597 11.075 83.9384 11.6 83.9384 12.2171C83.9384 12.576 84.0034 12.8934 84.1361 13.1663C84.2689 13.4392 84.4754 13.6855 84.7557 13.902C84.9062 14.0207 85.2602 14.1838 85.8178 14.3856C86.0272 14.4597 86.1866 14.5191 86.3016 14.5665C86.635 14.6941 86.874 14.8513 87.0244 15.0352C87.1749 15.2191 87.2487 15.4446 87.2487 15.7116C87.2487 16.0142 87.1425 16.2663 86.933 16.4621C86.7206 16.6579 86.4521 16.7558 86.1246 16.7558C85.7765 16.7558 85.4903 16.6253 85.2602 16.3642C85.0301 16.1032 84.915 15.7739 84.915 15.3734H83.5903C83.6316 16.1981 83.8765 16.8477 84.3249 17.3194C84.7704 17.7941 85.3575 18.0314 86.0833 18.0314C86.8032 18.0314 87.4021 17.8059 87.8771 17.355C88.3521 16.9041 88.5881 16.3375 88.5881 15.6552C88.5881 15.0708 88.4612 14.6021 88.2075 14.2521C87.942 13.905 87.5171 13.6113 86.9212 13.377ZM74.4297 11.4636C74.0432 11.0898 73.6626 10.7931 73.285 10.5766C72.9073 10.36 72.512 10.2087 72.099 10.1197C71.4204 9.98922 70.7595 10.0159 70.1164 10.2028C69.4703 10.3867 68.9068 10.716 68.42 11.1877C68.0099 11.5852 67.7089 12.0242 67.5172 12.5078C67.3254 12.9913 67.2428 13.5134 67.2694 14.0741C67.2871 14.5962 67.4021 15.0827 67.6086 15.5395C67.8152 15.9964 68.1131 16.4146 68.5026 16.7914C68.8773 17.1563 69.3198 17.4411 69.8273 17.6487C70.3347 17.8593 70.851 17.9691 71.382 17.981C71.9456 17.9928 72.4678 17.9068 72.9516 17.7169C73.3351 17.5656 73.6951 17.3491 74.0314 17.0673V15.0975C74.0314 15.1242 74.0314 15.1391 74.0314 15.145C74.0314 15.1213 74.0255 15.0174 73.9635 15.1123C73.7246 15.4743 73.6302 15.5573 73.3027 15.8777C72.8424 16.3256 72.3025 16.5689 71.683 16.6164C71.0634 16.6609 70.4793 16.5007 69.9305 16.1328L74.592 11.6119L74.4297 11.4636ZM69.0572 15.2369C68.7356 14.6911 68.6058 14.1364 68.6707 13.5757C68.7327 13.015 68.9835 12.5226 69.4201 12.1014C69.845 11.689 70.3376 11.4547 70.8923 11.4013C71.447 11.3479 72.0164 11.4814 72.5976 11.8047L69.0572 15.2369ZM79.2888 10.1108C78.8345 10.1108 78.4273 10.1909 78.0762 10.3482C77.7222 10.5054 77.3977 10.7575 77.1056 11.0987V10.2354H75.7544V17.8326H77.1646V14.3796C77.1646 13.3236 77.321 12.5671 77.6367 12.1103C77.9523 11.6534 78.4627 11.425 79.1619 11.425C79.8081 11.425 80.286 11.6178 80.5928 12.0094C80.9026 12.398 81.056 12.9943 81.056 13.8012V17.8326H82.4722V13.5015C82.4722 12.4099 82.1978 11.5733 81.649 10.9889C81.1003 10.4045 80.3155 10.1108 79.2888 10.1108Z" fill="#1D1E1C"/>
</svg>
